<svg width="512" height="512" version="1.1" xmlns="http://www.w3.org/2000/svg" desc="Created with imagetracer.js version 1.2.6" ><path fill="rgb(13,21,21)" stroke="rgb(13,21,21)" stroke-width="1" opacity="0.8784313725490196" d="M 226.5 20 L 228 20.5 L 225.5 22 L 226.5 20 Z " /><path fill="rgb(13,21,21)" stroke="rgb(13,21,21)" stroke-width="1" opacity="0.8784313725490196" d="M 218.5 101 L 219.5 103 L 218.5 101 Z " /><path fill="rgb(13,21,21)" stroke="rgb(13,21,21)" stroke-width="1" opacity="0.8784313725490196" d="M 29.5 183 L 38 183.5 L 29.5 184 L 29.5 183 Z " /><path fill="rgb(13,21,21)" stroke="rgb(13,21,21)" stroke-width="1" opacity="0.8784313725490196" d="M 132.5 183 L 141 183.5 L 132.5 184 L 132.5 183 Z " /><path fill="rgb(13,21,21)" stroke="rgb(13,21,21)" stroke-width="1" opacity="0.8784313725490196" d="M 206.5 193 L 207 256.5 L 206 256.5 L 206.5 193 Z " /><path fill="rgb(13,21,21)" stroke="rgb(13,21,21)" stroke-width="1" opacity="0.8784313725490196" d="M 178.5 194 L 181 194.5 L 178.5 195 L 178.5 194 Z " /><path fill="rgb(13,21,21)" stroke="rgb(13,21,21)" stroke-width="1" opacity="0.8784313725490196" d="M 195.5 194 L 198 194.5 L 195.5 195 L 195.5 194 Z " /><path fill="rgb(13,21,21)" stroke="rgb(13,21,21)" stroke-width="1" opacity="0.8784313725490196" d="M 28.5 248 L 38 248.5 L 28.5 249 L 28.5 248 Z " /><path fill="rgb(13,21,21)" stroke="rgb(13,21,21)" stroke-width="1" opacity="0.8784313725490196" d="M 133.5 248 L 140 248.5 L 133.5 249 L 133.5 248 Z " /><path fill="rgb(13,21,21)" stroke="rgb(13,21,21)" stroke-width="1" opacity="0.8784313725490196" d="M 146.5 249 L 149 249.5 L 146.5 250 L 146.5 249 Z " /><path fill="rgb(13,21,21)" stroke="rgb(13,21,21)" stroke-width="1" opacity="0.8784313725490196" d="M 25.5 263 L 31 263.5 L 25.5 264 L 25.5 263 Z " /><path fill="rgb(13,21,21)" stroke="rgb(13,21,21)" stroke-width="1" opacity="0.8784313725490196" d="M 128.5 263 L 131 263.5 L 128.5 264 L 128.5 263 Z " /><path fill="rgb(13,21,21)" stroke="rgb(13,21,21)" stroke-width="1" opacity="0.8784313725490196" d="M 142.5 263 L 145 263.5 L 142.5 264 L 142.5 263 Z " /><path fill="rgb(13,21,21)" stroke="rgb(13,21,21)" stroke-width="1" opacity="0.8784313725490196" d="M 204.5 272 L 207 273.5 L 207 335.5 L 205.5 337 L 206 335.5 L 206 273.5 L 204.5 273 L 204.5 272 Z " /><path fill="rgb(13,21,21)" stroke="rgb(13,21,21)" stroke-width="1" opacity="0.8784313725490196" d="M 78.5 274 L 92 274.5 L 78.5 275 L 78.5 274 Z " /><path fill="rgb(13,21,21)" stroke="rgb(13,21,21)" stroke-width="1" opacity="0.8784313725490196" d="M 181.5 274 L 195 274.5 L 181.5 275 L 181.5 274 Z " /><path fill="rgb(13,21,21)" stroke="rgb(13,21,21)" stroke-width="1" opacity="0.8784313725490196" d="M 355.5 312 L 356 315.5 L 355 315.5 L 355.5 312 Z " /><path fill="rgb(13,21,21)" stroke="rgb(13,21,21)" stroke-width="1" opacity="0.8784313725490196" d="M 23.5 328 L 26 328.5 L 23.5 329 L 23.5 328 Z " /><path fill="rgb(13,21,21)" stroke="rgb(13,21,21)" stroke-width="1" opacity="0.8784313725490196" d="M 40.5 328 L 43 328.5 L 40.5 329 L 40.5 328 Z " /><path fill="rgb(13,21,21)" stroke="rgb(13,21,21)" stroke-width="1" opacity="0.8784313725490196" d="M 127.5 328 L 130 328.5 L 127.5 329 L 127.5 328 Z " /><path fill="rgb(13,21,21)" stroke="rgb(13,21,21)" stroke-width="1" opacity="0.8784313725490196" d="M 143.5 328 L 146 328.5 L 143.5 329 L 143.5 328 Z " /><path fill="rgb(13,21,21)" stroke="rgb(13,21,21)" stroke-width="1" opacity="0.8784313725490196" d="M 149.5 329 L 152 329.5 L 149.5 330 L 149.5 329 Z " /><path fill="rgb(13,21,21)" stroke="rgb(13,21,21)" stroke-width="1" opacity="0.8784313725490196" d="M 73.5 338 L 76 338.5 L 73.5 339 L 73.5 338 Z " /><path fill="rgb(13,21,21)" stroke="rgb(13,21,21)" stroke-width="1" opacity="0.8784313725490196" d="M 176.5 338 L 179 338.5 L 176.5 339 L 176.5 338 Z " /><path fill="rgb(13,21,21)" stroke="rgb(13,21,21)" stroke-width="1" opacity="0.8784313725490196" d="M 79.5 339 L 91 339.5 L 79.5 340 L 79.5 339 Z " /><path fill="rgb(13,21,21)" stroke="rgb(13,21,21)" stroke-width="1" opacity="0.8784313725490196" d="M 183.5 339 L 190 339.5 L 183.5 340 L 183.5 339 Z " /><path fill="rgb(13,21,21)" stroke="rgb(13,21,21)" stroke-width="1" opacity="0.8784313725490196" d="M 33.5 342 L 37 342.5 L 33.5 343 L 33.5 342 Z " /><path fill="rgb(13,21,21)" stroke="rgb(13,21,21)" stroke-width="1" opacity="0.8784313725490196" d="M 132.5 342 L 140 342.5 L 132.5 343 L 132.5 342 Z " /><path fill="rgb(13,21,21)" stroke="rgb(13,21,21)" stroke-width="1" opacity="0.8784313725490196" d="M 423.5 342 L 431 342.5 L 423.5 343 L 423.5 342 Z " /><path fill="rgb(13,21,21)" stroke="rgb(13,21,21)" stroke-width="1" opacity="0.8784313725490196" d="M 41.5 343 L 44 343.5 L 41.5 344 L 41.5 343 Z " /><path fill="rgb(13,21,21)" stroke="rgb(13,21,21)" stroke-width="1" opacity="0.8784313725490196" d="M 206.5 352 L 207 415.5 L 206 415.5 L 206.5 352 Z " /><path fill="rgb(13,21,21)" stroke="rgb(13,21,21)" stroke-width="1" opacity="0.8784313725490196" d="M 383.5 353 L 386 353.5 L 383.5 354 L 383.5 353 Z " /><path fill="rgb(13,21,21)" stroke="rgb(13,21,21)" stroke-width="1" opacity="0.8784313725490196" d="M 486.5 353 L 489 353.5 L 486.5 354 L 486.5 353 Z " /><path fill="rgb(13,21,21)" stroke="rgb(13,21,21)" stroke-width="1" opacity="0.8784313725490196" d="M 31.5 407 L 37 407.5 L 31.5 408 L 31.5 407 Z " /><path fill="rgb(13,21,21)" stroke="rgb(13,21,21)" stroke-width="1" opacity="0.8784313725490196" d="M 134.5 407 L 138 407.5 L 134.5 408 L 134.5 407 Z " /><path fill="rgb(13,21,21)" stroke="rgb(13,21,21)" stroke-width="1" opacity="0.8784313725490196" d="M 424.5 407 L 430 407.5 L 424.5 408 L 424.5 407 Z " /><path fill="rgb(13,21,21)" stroke="rgb(13,21,21)" stroke-width="1" opacity="0.8784313725490196" d="M 25.5 422 L 29 422.5 L 25.5 423 L 25.5 422 Z " /><path fill="rgb(13,21,21)" stroke="rgb(13,21,21)" stroke-width="1" opacity="0.8784313725490196" d="M 38.5 422 L 42 422.5 L 38.5 423 L 38.5 422 Z " /><path fill="rgb(13,21,21)" stroke="rgb(13,21,21)" stroke-width="1" opacity="0.8784313725490196" d="M 128.5 422 L 132 422.5 L 128.5 423 L 128.5 422 Z " /><path fill="rgb(13,21,21)" stroke="rgb(13,21,21)" stroke-width="1" opacity="0.8784313725490196" d="M 141.5 422 L 144 422.5 L 141.5 423 L 141.5 422 Z " /><path fill="rgb(13,21,21)" stroke="rgb(13,21,21)" stroke-width="1" opacity="0.8784313725490196" d="M 419.5 422 L 423 422.5 L 419.5 423 L 419.5 422 Z " /><path fill="rgb(13,21,21)" stroke="rgb(13,21,21)" stroke-width="1" opacity="0.8784313725490196" d="M 432.5 422 L 435 422.5 L 432.5 423 L 432.5 422 Z " /><path fill="rgb(13,21,21)" stroke="rgb(13,21,21)" stroke-width="1" opacity="0.8784313725490196" d="M 204.5 431 L 207 432.5 L 206.5 492 L 206 432 L 204.5 431 Z " /><path fill="rgb(13,21,21)" stroke="rgb(13,21,21)" stroke-width="1" opacity="0.8784313725490196" d="M 71.5 432 L 74 432.5 L 71.5 433 L 71.5 432 Z " /><path fill="rgb(13,21,21)" stroke="rgb(13,21,21)" stroke-width="1" opacity="0.8784313725490196" d="M 199.5 432 L 202 432.5 L 199.5 433 L 199.5 432 Z " /><path fill="rgb(13,21,21)" stroke="rgb(13,21,21)" stroke-width="1" opacity="0.8784313725490196" d="M 465.5 432 L 468 432.5 L 465.5 433 L 465.5 432 Z " /><path fill="rgb(13,21,21)" stroke="rgb(13,21,21)" stroke-width="1" opacity="0.8784313725490196" d="M 77.5 433 L 92 433.5 L 77.5 434 L 77.5 433 Z " /><path fill="rgb(13,21,21)" stroke="rgb(13,21,21)" stroke-width="1" opacity="0.8784313725490196" d="M 181.5 433 L 188 433.5 L 181.5 434 L 181.5 433 Z " /><path fill="rgb(13,21,21)" stroke="rgb(13,21,21)" stroke-width="1" opacity="0.8784313725490196" d="M 189.5 433 L 195 433.5 L 189.5 434 L 189.5 433 Z " /><path fill="rgb(13,21,21)" stroke="rgb(13,21,21)" stroke-width="1" opacity="0.8784313725490196" d="M 471.5 433 L 478 433.5 L 471.5 434 L 471.5 433 Z " /><path fill="rgb(13,21,21)" stroke="rgb(13,21,21)" stroke-width="1" opacity="0.8784313725490196" d="M 480.5 433 L 486 433.5 L 480.5 434 L 480.5 433 Z " /><path fill="rgb(13,21,21)" stroke="rgb(13,21,21)" stroke-width="1" opacity="0.8784313725490196" d="M 397.5 490 L 398 492.5 L 397 492.5 L 397.5 490 Z " /><path fill="rgb(0,0,0)" stroke="rgb(0,0,0)" stroke-width="1" opacity="0" d="M 0 0 L 512 0 L 512 338.5 L 511 338.5 L 507.5 334 L 501.5 334 L 487.5 339 L 469.5 339 L 441.5 329 L 436.5 328 L 418.5 328 L 405.5 331 L 392.5 337 L 384.5 339 L 376 339 L 371 314.5 L 366.5 307 L 361 306 L 358 291.5 Q 363.2 289.2 363 281.5 L 302 25.5 Q 299.6 14.4 291.5 9 L 281.5 5 L 226.5 5 Q 215.4 7.4 210 15.5 L 206 25.5 L 206 78.5 L 210.5 84 L 213 84.5 L 213 100 L 208 101 L 206 105.5 L 206 176.5 L 204.5 178 L 196.5 180 L 179.5 180 L 151.5 170 Q 146.7 171.2 145.5 169 L 126.5 169 L 117.5 171 L 101.5 178 L 93.5 180 L 76.5 180 L 48.5 170 Q 43.8 171.2 42.5 169 L 23.5 169 L 8.5 173 L 0.5 179 L 0 0 Z " /><path fill="rgb(0,0,0)" stroke="rgb(0,0,0)" stroke-width="1" opacity="0" d="M 511.5 502 L 512 512 L 0.5 512 L 0 511.5 L 0 503.5 L 2 504.5 Q 1.3 506.8 3.5 506 L 7.5 508 L 504.5 508 L 510 506 L 511.5 502 Z " /><path fill="rgb(0,0,0)" stroke="rgb(0,0,0)" stroke-width="1" opacity="0.996078431372549" d="M 226.5 5 L 231 5.5 L 226.5 6 L 226.5 5 Z " /><path fill="rgb(0,0,0)" stroke="rgb(0,0,0)" stroke-width="1" opacity="0.996078431372549" d="M 277.5 5 L 282 5.5 L 277.5 6 L 277.5 5 Z " /><path fill="rgb(0,0,0)" stroke="rgb(0,0,0)" stroke-width="1" opacity="0.996078431372549" d="M 289.5 8 L 298 15.5 L 299 17.5 L 297 16.5 L 291.5 10 L 289.5 8 Z " /><path fill="rgb(0,0,0)" stroke="rgb(0,0,0)" stroke-width="1" opacity="0.996078431372549" d="M 216.5 9 L 211 15.5 L 209.5 18 L 210 16.5 L 216.5 9 Z " /><path fill="rgb(0,0,0)" stroke="rgb(0,0,0)" stroke-width="1" opacity="0.996078431372549" d="M 206.5 25 L 207 78.5 L 206 78.5 L 206.5 25 Z " /><path fill="rgb(0,0,0)" stroke="rgb(0,0,0)" stroke-width="1" opacity="0.996078431372549" d="M 302.5 29 L 303 31.5 L 302 31.5 L 302.5 29 Z " /><path fill="rgb(0,0,0)" stroke="rgb(0,0,0)" stroke-width="1" opacity="0.996078431372549" d="M 303.5 33 L 304 35.5 L 303 35.5 L 303.5 33 Z " /><path fill="rgb(0,0,0)" stroke="rgb(0,0,0)" stroke-width="1" opacity="0.996078431372549" d="M 307.5 50 L 308 52.5 L 307 52.5 L 307.5 50 Z " /><path fill="rgb(0,0,0)" stroke="rgb(0,0,0)" stroke-width="1" opacity="0.996078431372549" d="M 308.5 54 L 309 56.5 L 308 56.5 L 308.5 54 Z " /><path fill="rgb(0,0,0)" stroke="rgb(0,0,0)" stroke-width="1" opacity="0.996078431372549" d="M 312.5 71 L 313 73.5 L 312 73.5 L 312.5 71 Z " /><path fill="rgb(0,0,0)" stroke="rgb(0,0,0)" stroke-width="1" opacity="0.996078431372549" d="M 313.5 75 L 314 77.5 L 313 77.5 L 313.5 75 Z " /><path fill="rgb(0,0,0)" stroke="rgb(0,0,0)" stroke-width="1" opacity="0.996078431372549" d="M 207.5 80 L 212 83.5 L 210.5 84 L 207.5 80 Z " /><path fill="rgb(0,0,0)" stroke="rgb(0,0,0)" stroke-width="1" opacity="0.996078431372549" d="M 317.5 92 L 318 94.5 L 317 94.5 L 317.5 92 Z " /><path fill="rgb(0,0,0)" stroke="rgb(0,0,0)" stroke-width="1" opacity="0.996078431372549" d="M 318.5 96 L 319 98.5 L 318 98.5 L 318.5 96 Z " /><path fill="rgb(0,0,0)" stroke="rgb(0,0,0)" stroke-width="1" opacity="0.996078431372549" d="M 319.5 100 L 320 102.5 L 319 102.5 L 319.5 100 Z " /><path fill="rgb(0,0,0)" stroke="rgb(0,0,0)" stroke-width="1" opacity="0.996078431372549" d="M 206.5 105 L 207 178 L 205 177.5 L 206 176.5 L 206.5 105 Z " /><path fill="rgb(0,0,0)" stroke="rgb(0,0,0)" stroke-width="1" opacity="0.996078431372549" d="M 323.5 117 L 324 119.5 L 323 119.5 L 323.5 117 Z " /><path fill="rgb(0,0,0)" stroke="rgb(0,0,0)" stroke-width="1" opacity="0.996078431372549" d="M 324.5 121 L 325 123.5 L 324 123.5 L 324.5 121 Z " /><path fill="rgb(0,0,0)" stroke="rgb(0,0,0)" stroke-width="1" opacity="0.996078431372549" d="M 328.5 138 L 329 140.5 L 328 140.5 L 328.5 138 Z " /><path fill="rgb(0,0,0)" stroke="rgb(0,0,0)" stroke-width="1" opacity="0.996078431372549" d="M 329.5 142 L 330 144.5 L 329 144.5 L 329.5 142 Z " /><path fill="rgb(0,0,0)" stroke="rgb(0,0,0)" stroke-width="1" opacity="0.996078431372549" d="M 333.5 159 L 334 161.5 L 333 161.5 L 333.5 159 Z " /><path fill="rgb(0,0,0)" stroke="rgb(0,0,0)" stroke-width="1" opacity="0.996078431372549" d="M 334.5 163 L 335 165.5 L 334 165.5 L 334.5 163 Z " /><path fill="rgb(0,0,0)" stroke="rgb(0,0,0)" stroke-width="1" opacity="0.996078431372549" d="M 23.5 169 L 28 169.5 L 23.5 170 L 23.5 169 Z " /><path fill="rgb(0,0,0)" stroke="rgb(0,0,0)" stroke-width="1" opacity="0.996078431372549" d="M 39.5 169 L 43 169.5 L 39.5 170 L 39.5 169 Z " /><path fill="rgb(0,0,0)" stroke="rgb(0,0,0)" stroke-width="1" opacity="0.996078431372549" d="M 126.5 169 L 131 169.5 L 126.5 170 L 126.5 169 Z " /><path fill="rgb(0,0,0)" stroke="rgb(0,0,0)" stroke-width="1" opacity="0.996078431372549" d="M 142.5 169 L 146 169.5 L 142.5 170 L 142.5 169 Z " /><path fill="rgb(0,0,0)" stroke="rgb(0,0,0)" stroke-width="1" opacity="0.996078431372549" d="M 18.5 170 L 21 170.5 L 18.5 171 L 18.5 170 Z " /><path fill="rgb(0,0,0)" stroke="rgb(0,0,0)" stroke-width="1" opacity="0.996078431372549" d="M 46.5 170 L 49 170.5 L 46.5 171 L 46.5 170 Z " /><path fill="rgb(0,0,0)" stroke="rgb(0,0,0)" stroke-width="1" opacity="0.996078431372549" d="M 121.5 170 L 124 170.5 L 121.5 171 L 121.5 170 Z " /><path fill="rgb(0,0,0)" stroke="rgb(0,0,0)" stroke-width="1" opacity="0.996078431372549" d="M 149.5 170 L 152 170.5 L 149.5 171 L 149.5 170 Z " /><path fill="rgb(0,0,0)" stroke="rgb(0,0,0)" stroke-width="1" opacity="0.996078431372549" d="M 54.5 172 L 58 173.5 L 56.5 174 L 54.5 172 Z " /><path fill="rgb(0,0,0)" stroke="rgb(0,0,0)" stroke-width="1" opacity="0.996078431372549" d="M 8.5 173 L 10 173.5 L 6.5 175 L 6.5 174 L 8.5 173 Z " /><path fill="rgb(0,0,0)" stroke="rgb(0,0,0)" stroke-width="1" opacity="0.996078431372549" d="M 162.5 174 L 166 175.5 L 164.5 176 L 162.5 174 Z " /><path fill="rgb(0,0,0)" stroke="rgb(0,0,0)" stroke-width="1" opacity="0.996078431372549" d="M 4.5 175 L 3.5 177 L 4.5 175 Z " /><path fill="rgb(0,0,0)" stroke="rgb(0,0,0)" stroke-width="1" opacity="0.996078431372549" d="M 1.5 178 L 1 179.5 L 0.5 182 L 0 179.5 L 1.5 178 Z " /><path fill="rgb(0,0,0)" stroke="rgb(0,0,0)" stroke-width="1" opacity="0.996078431372549" d="M 73.5 179 L 76 179.5 L 73.5 180 L 73.5 179 Z " /><path fill="rgb(0,0,0)" stroke="rgb(0,0,0)" stroke-width="1" opacity="0.996078431372549" d="M 94.5 179 L 97 179.5 L 94.5 180 L 94.5 179 Z " /><path fill="rgb(0,0,0)" stroke="rgb(0,0,0)" stroke-width="1" opacity="0.996078431372549" d="M 176.5 179 L 179 179.5 L 176.5 180 L 176.5 179 Z " /><path fill="rgb(0,0,0)" stroke="rgb(0,0,0)" stroke-width="1" opacity="0.996078431372549" d="M 197.5 179 L 200 179.5 L 197.5 180 L 197.5 179 Z " /><path fill="rgb(0,0,0)" stroke="rgb(0,0,0)" stroke-width="1" opacity="0.996078431372549" d="M 79.5 180 L 91 180.5 L 79.5 181 L 79.5 180 Z " /><path fill="rgb(0,0,0)" stroke="rgb(0,0,0)" stroke-width="1" opacity="0.996078431372549" d="M 182.5 180 L 194 180.5 L 182.5 181 L 182.5 180 Z " /><path fill="rgb(0,0,0)" stroke="rgb(0,0,0)" stroke-width="1" opacity="0.996078431372549" d="M 338.5 180 L 339 182.5 L 338 182.5 L 338.5 180 Z " /><path fill="rgb(0,0,0)" stroke="rgb(0,0,0)" stroke-width="1" opacity="0.996078431372549" d="M 339.5 184 L 340 186.5 L 339 186.5 L 339.5 184 Z " /><path fill="rgb(0,0,0)" stroke="rgb(0,0,0)" stroke-width="1" opacity="0.996078431372549" d="M 343.5 201 L 344 203.5 L 343 203.5 L 343.5 201 Z " /><path fill="rgb(0,0,0)" stroke="rgb(0,0,0)" stroke-width="1" opacity="0.996078431372549" d="M 344.5 205 L 345 207.5 L 344 207.5 L 344.5 205 Z " /><path fill="rgb(0,0,0)" stroke="rgb(0,0,0)" stroke-width="1" opacity="0.996078431372549" d="M 345.5 209 L 346 211.5 L 345 211.5 L 345.5 209 Z " /><path fill="rgb(0,0,0)" stroke="rgb(0,0,0)" stroke-width="1" opacity="0.996078431372549" d="M 349.5 226 L 350 228.5 L 349 228.5 L 349.5 226 Z " /><path fill="rgb(0,0,0)" stroke="rgb(0,0,0)" stroke-width="1" opacity="0.996078431372549" d="M 350.5 230 L 351 232.5 L 350 232.5 L 350.5 230 Z " /><path fill="rgb(0,0,0)" stroke="rgb(0,0,0)" stroke-width="1" opacity="0.996078431372549" d="M 354.5 247 L 355 249.5 L 354 249.5 L 354.5 247 Z " /><path fill="rgb(0,0,0)" stroke="rgb(0,0,0)" stroke-width="1" opacity="0.996078431372549" d="M 355.5 251 L 356 253.5 L 355 253.5 L 355.5 251 Z " /><path fill="rgb(0,0,0)" stroke="rgb(0,0,0)" stroke-width="1" opacity="0.996078431372549" d="M 359.5 268 L 360 270.5 L 359 270.5 L 359.5 268 Z " /><path fill="rgb(0,0,0)" stroke="rgb(0,0,0)" stroke-width="1" opacity="0.996078431372549" d="M 360.5 272 L 361 274.5 L 360 274.5 L 360.5 272 Z " /><path fill="rgb(0,0,0)" stroke="rgb(0,0,0)" stroke-width="1" opacity="0.996078431372549" d="M 362.5 281 L 363 285.5 L 362 285.5 L 362.5 281 Z " /><path fill="rgb(0,0,0)" stroke="rgb(0,0,0)" stroke-width="1" opacity="0.996078431372549" d="M 361.5 287 L 358.5 291 L 357 290.5 L 361.5 287 Z " /><path fill="rgb(0,0,0)" stroke="rgb(0,0,0)" stroke-width="1" opacity="0.996078431372549" d="M 361.5 306 L 364 306.5 L 361.5 307 L 361.5 306 Z " /><path fill="rgb(0,0,0)" stroke="rgb(0,0,0)" stroke-width="1" opacity="0.996078431372549" d="M 365.5 307 L 369 309.5 L 366.5 308 L 365.5 307 Z " /><path fill="rgb(0,0,0)" stroke="rgb(0,0,0)" stroke-width="1" opacity="0.996078431372549" d="M 370.5 314 L 371 316.5 L 370 316.5 L 370.5 314 Z " /><path fill="rgb(0,0,0)" stroke="rgb(0,0,0)" stroke-width="1" opacity="0.996078431372549" d="M 371.5 318 L 372 320.5 L 371 320.5 L 371.5 318 Z " /><path fill="rgb(0,0,0)" stroke="rgb(0,0,0)" stroke-width="1" opacity="0.996078431372549" d="M 418.5 328 L 423 328.5 L 418.5 329 L 418.5 328 Z " /><path fill="rgb(0,0,0)" stroke="rgb(0,0,0)" stroke-width="1" opacity="0.996078431372549" d="M 432.5 328 L 437 328.5 L 432.5 329 L 432.5 328 Z " /><path fill="rgb(0,0,0)" stroke="rgb(0,0,0)" stroke-width="1" opacity="0.996078431372549" d="M 412.5 329 L 415 329.5 L 412.5 330 L 412.5 329 Z " /><path fill="rgb(0,0,0)" stroke="rgb(0,0,0)" stroke-width="1" opacity="0.996078431372549" d="M 439.5 329 L 442 329.5 L 439.5 330 L 439.5 329 Z " /><path fill="rgb(0,0,0)" stroke="rgb(0,0,0)" stroke-width="1" opacity="0.996078431372549" d="M 408.5 330 L 411 330.5 L 408.5 331 L 408.5 330 Z " /><path fill="rgb(0,0,0)" stroke="rgb(0,0,0)" stroke-width="1" opacity="0.996078431372549" d="M 506.5 334 L 511 337.5 L 507.5 335 L 506.5 334 Z " /><path fill="rgb(0,0,0)" stroke="rgb(0,0,0)" stroke-width="1" opacity="0.996078431372549" d="M 375.5 335 L 376 337.5 L 375 337.5 L 375.5 335 Z " /><path fill="rgb(0,0,0)" stroke="rgb(0,0,0)" stroke-width="1" opacity="0.996078431372549" d="M 498.5 335 L 500 335.5 L 496.5 337 L 496.5 336 L 498.5 335 Z " /><path fill="rgb(0,0,0)" stroke="rgb(0,0,0)" stroke-width="1" opacity="0.996078431372549" d="M 389.5 337 L 392 337.5 L 389.5 338 L 389.5 337 Z " /><path fill="rgb(0,0,0)" stroke="rgb(0,0,0)" stroke-width="1" opacity="0.996078431372549" d="M 492.5 337 L 495 337.5 L 492.5 338 L 492.5 337 Z " /><path fill="rgb(0,0,0)" stroke="rgb(0,0,0)" stroke-width="1" opacity="0.996078431372549" d="M 385.5 338 L 388 338.5 L 385.5 339 L 385.5 338 Z " /><path fill="rgb(0,0,0)" stroke="rgb(0,0,0)" stroke-width="1" opacity="0.996078431372549" d="M 466.5 338 L 469 338.5 L 466.5 339 L 466.5 338 Z " /><path fill="rgb(0,0,0)" stroke="rgb(0,0,0)" stroke-width="1" opacity="0.996078431372549" d="M 488.5 338 L 491 338.5 L 488.5 339 L 488.5 338 Z " /><path fill="rgb(0,0,0)" stroke="rgb(0,0,0)" stroke-width="1" opacity="0.996078431372549" d="M 376.5 339 L 383 339.5 L 376.5 340 L 376.5 339 Z " /><path fill="rgb(0,0,0)" stroke="rgb(0,0,0)" stroke-width="1" opacity="0.996078431372549" d="M 472.5 339 L 485 339.5 L 472.5 340 L 472.5 339 Z " /><path fill="rgb(0,0,0)" stroke="rgb(0,0,0)" stroke-width="1" opacity="0.996078431372549" d="M 0.5 500 L 2 503.5 L 0 502.5 L 0.5 500 Z " /><path fill="rgb(0,0,0)" stroke="rgb(0,0,0)" stroke-width="1" opacity="0.996078431372549" d="M 508.5 505 L 510 505.5 L 507.5 507 L 508.5 505 Z " /><path fill="rgb(0,0,0)" stroke="rgb(0,0,0)" stroke-width="1" opacity="0.996078431372549" d="M 7.5 507 L 505 507.5 L 7.5 508 L 7.5 507 Z " /><path fill="rgb(156,230,231)" stroke="rgb(156,230,231)" stroke-width="1" opacity="1" d="M 28.5 343 L 31 343.5 L 28.5 344 L 28.5 343 Z " /><path fill="rgb(163,240,241)" stroke="rgb(163,240,241)" stroke-width="1" opacity="1" d="M 28.5 184 L 44.5 185 L 72.5 195 L 90.5 196 L 105.5 193 L 125.5 185 L 141.5 184 Q 157.7 187.3 170.5 194 L 181.5 196 L 194.5 196 L 206 194 L 206 255.5 L 204.5 257 L 196.5 259 L 179.5 259 L 151.5 249 Q 146.7 250.2 145.5 248 L 127.5 248 L 117.5 250 L 101.5 257 L 93.5 259 L 76.5 259 L 48.5 249 Q 43.8 250.2 42.5 248 L 23.5 248 L 15 250 L 15 187.5 L 17.5 187 L 28.5 184 Z " /><path fill="rgb(163,240,241)" stroke="rgb(163,240,241)" stroke-width="1" opacity="1" d="M 31.5 343 L 47.5 345 L 71.5 354 L 91.5 355 L 105.5 352 L 125.5 344 L 141.5 343 Q 142.8 345.2 147.5 344 L 174.5 354 L 194.5 355 L 206 353 L 206 414.5 L 204.5 416 L 196.5 418 L 179.5 418 L 151.5 408 Q 146.7 409.3 145.5 407 L 127.5 407 L 114.5 410 L 98.5 417 L 93.5 418 L 75.5 418 L 48.5 408 Q 43.8 409.3 42.5 407 L 23.5 407 L 15 409 L 15 346.5 L 18.5 346 L 31.5 343 Z " /><path fill="rgb(163,240,241)" stroke="rgb(163,240,241)" stroke-width="1" opacity="1" d="M 422.5 343 L 438.5 344 L 465.5 354 L 485.5 355 L 497 353 L 497 414.5 L 495.5 416 L 487.5 418 L 469.5 418 L 441.5 408 L 436.5 407 L 418.5 407 L 408.5 409 L 395.5 414 L 393 408.5 L 393 404.5 L 381 355.5 L 382.5 354 L 393.5 353 L 409.5 346 L 422.5 343 Z " /><path fill="rgb(173,196,195)" stroke="rgb(173,196,195)" stroke-width="1" opacity="0.8980392156862745" d="M 213.5 85 L 214 98.5 L 213 98.5 L 213.5 85 Z " /><path fill="rgb(173,196,195)" stroke="rgb(173,196,195)" stroke-width="1" opacity="0.8980392156862745" d="M 357.5 291 L 361 305.5 L 360 305.5 L 357.5 291 Z " /><path fill="rgb(102,203,200)" stroke="rgb(102,203,200)" stroke-width="1" opacity="1" d="M 185.5 259 L 191 259.5 L 185.5 260 L 185.5 259 Z " /><path fill="rgb(102,203,200)" stroke="rgb(102,203,200)" stroke-width="1" opacity="1" d="M 24.5 264 L 41.5 264 L 46.5 265 Q 59.3 271.7 75.5 275 L 93.5 275 L 106.5 272 Q 115.3 266.3 127.5 264 L 145.5 264 L 173.5 274 L 178.5 275 L 197.5 275 L 206 273 L 206 335.5 L 204.5 336 L 194.5 339 L 181.5 339 L 169.5 336 L 152.5 329 L 134.5 327 L 133.5 328 L 125.5 328 L 116.5 330 L 96.5 338 L 78.5 339 L 66.5 336 L 49.5 329 L 30.5 327 L 15.5 330 L 15 267.5 L 24.5 264 Z " /><path fill="rgb(102,203,200)" stroke="rgb(102,203,200)" stroke-width="1" opacity="1" d="M 24.5 423 L 42.5 423 L 60.5 430 L 75.5 434 L 94.5 434 L 103.5 432 L 119.5 425 L 127.5 423 L 144.5 423 L 173.5 433 L 178.5 434 L 197.5 434 L 206 432 L 206 491.5 L 205.5 492 L 15 492 L 15 426.5 L 16.5 425 L 24.5 423 Z " /><path fill="rgb(102,203,200)" stroke="rgb(102,203,200)" stroke-width="1" opacity="1" d="M 418.5 423 L 435.5 423 L 440.5 424 L 456.5 431 L 469.5 434 L 488.5 434 L 497 432 L 497 492 L 413 492 L 399 430.5 Q 407.1 425.1 418.5 423 Z " /><path fill="rgb(180,204,203)" stroke="rgb(180,204,203)" stroke-width="1" opacity="0.996078431372549" d="M 256.5 20 L 277.5 20 L 281.5 21 L 285 24.5 L 287 28.5 L 292 53.5 L 312 133.5 L 312 137.5 L 343 263.5 L 343 267.5 L 348 286.5 L 351.5 291 L 357 292 L 360 307 L 356 309.5 L 355 317.5 L 397 492 L 254.5 492 L 254 491.5 L 254 24.5 L 256.5 20 Z " /><path fill="rgb(180,204,203)" stroke="rgb(180,204,203)" stroke-width="1" opacity="0.996078431372549" d="M 476.5 418 L 481 418.5 L 476.5 419 L 476.5 418 Z " /><path fill="rgb(0,0,0)" stroke="rgb(0,0,0)" stroke-width="1" opacity="1" d="M 231.5 5 L 276.5 5 Q 278 7.5 283.5 6 Q 292.2 8.8 297 15.5 L 302 27.5 L 302 31.5 L 307 48.5 L 312 73.5 L 317 90.5 L 317 94.5 L 359 266.5 L 359 270.5 L 362 279.5 L 362 286.5 Q 359.9 290.9 353.5 291 L 350 288.5 L 346 276.5 L 346 272.5 L 341 255.5 L 341 251.5 L 320 167.5 L 320 163.5 L 315 146.5 L 315 142.5 L 310 125.5 L 310 121.5 L 305 104.5 L 305 100.5 L 300 83.5 L 300 79.5 L 295 62.5 L 288 29.5 Q 286.5 23 281.5 20 L 226.5 20 L 223 22 L 221 26.5 L 221 77.5 L 217.5 83 L 212.5 84 L 207 79.5 L 207 23.5 Q 210.2 14.2 217.5 9 L 224.5 6 Q 230 7.5 231.5 5 Z " /><path fill="rgb(0,0,0)" stroke="rgb(0,0,0)" stroke-width="1" opacity="1" d="M 211.5 100 Q 218.8 98.8 220 103.5 L 221 106.5 L 221 493 L 397.5 493 L 398 490.5 L 357 322.5 L 356 310.5 Q 357.6 306.1 364.5 307 L 369 310.5 L 376 340 L 391.5 338 Q 401.8 331.8 415.5 329 L 431.5 328 L 432.5 329 L 443.5 330 L 466.5 339 L 484.5 340 L 505.5 334 L 511 338.5 L 512 341.5 L 512 499.5 L 510 505 L 506.5 507 L 5.5 507 L 2 504.5 L 0 499.5 L 0 182.5 L 2 177 L 16.5 171 L 27.5 170 L 28.5 169 L 38.5 169 L 53.5 172 L 73.5 180 L 90.5 181 Q 106.7 177.7 119.5 171 L 130.5 170 L 131.5 169 L 141.5 169 L 156.5 172 L 176.5 180 L 193.5 181 L 207 178 L 207 104.5 L 209.5 101 L 211.5 100 Z M 30 183 L 18 186 L 15 187 L 15 251 L 24 249 L 44 249 L 49 250 L 77 260 L 94 260 L 102 258 L 118 251 L 127 249 L 146 249 Q 147 251 152 250 L 180 260 Q 196 262 206 257 L 207 257 L 207 193 L 195 195 L 175 194 L 148 184 Q 142 186 141 183 L 126 184 L 106 192 L 92 195 L 72 194 L 45 184 L 30 183 Z M 26 263 L 15 266 L 16 331 L 27 328 L 40 328 L 51 330 Q 63 337 80 340 L 96 339 L 120 330 L 131 328 L 143 328 L 154 330 L 177 339 Q 182 338 184 340 L 199 339 L 207 336 L 207 274 L 206 272 L 199 274 L 178 274 L 173 273 L 145 263 L 129 263 L 124 264 Q 111 270 96 274 L 75 274 L 63 271 L 46 264 L 26 263 Z M 34 342 L 33 343 L 24 343 L 19 345 L 15 346 L 15 410 L 24 408 L 43 408 Q 44 410 49 409 L 77 419 L 94 419 Q 106 417 115 411 L 128 408 L 146 408 Q 147 410 152 409 L 169 416 L 181 419 Q 197 421 206 416 L 207 416 L 207 352 L 196 354 L 175 353 L 151 344 L 140 342 L 122 344 L 109 350 L 93 354 L 72 353 L 48 344 L 34 342 Z M 424 342 L 410 345 L 394 352 L 380 354 L 395 416 Q 404 410 418 408 L 437 408 Q 438 410 443 409 L 470 419 L 488 419 L 496 417 L 497 416 L 497 352 L 486 354 L 466 353 L 442 344 L 424 342 Z M 26 422 L 17 425 L 15 426 L 15 493 L 206 493 L 207 492 L 207 433 L 206 431 L 189 434 L 188 433 L 177 433 L 169 431 L 153 424 L 144 422 L 129 422 L 124 423 L 108 430 L 96 433 L 75 433 L 63 430 Q 54 424 42 422 L 26 422 Z M 420 422 L 398 429 L 404 459 L 409 476 L 409 480 L 412 492 L 414 493 L 497 493 L 497 431 L 490 433 L 481 433 L 480 434 L 460 431 L 444 424 L 435 422 L 420 422 Z " /><path fill="rgb(145,175,174)" stroke="rgb(145,175,174)" stroke-width="1" opacity="0.996078431372549" d="M 228.5 20 L 256 20.5 L 254 24.5 L 254 492 L 397 492.5 L 221 493 L 221 104.5 L 218.5 101 L 214 98.5 L 214 85.5 L 213 84.5 Q 219.4 84.4 221 79.5 L 221 27.5 L 224.5 22 L 228.5 20 Z " /><path fill="rgb(145,175,174)" stroke="rgb(145,175,174)" stroke-width="1" opacity="0.996078431372549" d="M 278.5 20 L 281 20.5 L 278.5 21 L 278.5 20 Z " /><path fill="rgb(145,175,174)" stroke="rgb(145,175,174)" stroke-width="1" opacity="0.996078431372549" d="M 282.5 21 L 286 25.5 L 285 25.5 L 282.5 21 Z " /><path fill="rgb(145,175,174)" stroke="rgb(145,175,174)" stroke-width="1" opacity="0.996078431372549" d="M 143.5 184 L 146 184.5 L 143.5 185 L 143.5 184 Z " /><path fill="rgb(145,175,174)" stroke="rgb(145,175,174)" stroke-width="1" opacity="0.996078431372549" d="M 94.5 194 L 97 194.5 L 94.5 195 L 94.5 194 Z " /><path fill="rgb(145,175,174)" stroke="rgb(145,175,174)" stroke-width="1" opacity="0.996078431372549" d="M 82.5 195 L 87 195.5 L 82.5 196 L 82.5 195 Z " /><path fill="rgb(145,175,174)" stroke="rgb(145,175,174)" stroke-width="1" opacity="0.996078431372549" d="M 184.5 195 L 191 195.5 L 184.5 196 L 184.5 195 Z " /><path fill="rgb(145,175,174)" stroke="rgb(145,175,174)" stroke-width="1" opacity="0.996078431372549" d="M 25.5 248 L 28 248.5 L 25.5 249 L 25.5 248 Z " /><path fill="rgb(145,175,174)" stroke="rgb(145,175,174)" stroke-width="1" opacity="0.996078431372549" d="M 38.5 248 L 42 248.5 L 38.5 249 L 38.5 248 Z " /><path fill="rgb(145,175,174)" stroke="rgb(145,175,174)" stroke-width="1" opacity="0.996078431372549" d="M 128.5 248 L 133 248.5 L 128.5 249 L 128.5 248 Z " /><path fill="rgb(145,175,174)" stroke="rgb(145,175,174)" stroke-width="1" opacity="0.996078431372549" d="M 140.5 248 L 145 248.5 L 140.5 249 L 140.5 248 Z " /><path fill="rgb(145,175,174)" stroke="rgb(145,175,174)" stroke-width="1" opacity="0.996078431372549" d="M 78.5 259 L 83 259.5 L 78.5 260 L 78.5 259 Z " /><path fill="rgb(145,175,174)" stroke="rgb(145,175,174)" stroke-width="1" opacity="0.996078431372549" d="M 86.5 259 L 92 259.5 L 86.5 260 L 86.5 259 Z " /><path fill="rgb(145,175,174)" stroke="rgb(145,175,174)" stroke-width="1" opacity="0.996078431372549" d="M 181.5 259 L 185 259.5 L 181.5 260 L 181.5 259 Z " /><path fill="rgb(145,175,174)" stroke="rgb(145,175,174)" stroke-width="1" opacity="0.996078431372549" d="M 191.5 259 L 195 259.5 L 191.5 260 L 191.5 259 Z " /><path fill="rgb(145,175,174)" stroke="rgb(145,175,174)" stroke-width="1" opacity="0.996078431372549" d="M 31.5 263 L 38 263.5 L 31.5 264 L 31.5 263 Z " /><path fill="rgb(145,175,174)" stroke="rgb(145,175,174)" stroke-width="1" opacity="0.996078431372549" d="M 131.5 263 L 142 263.5 L 131.5 264 L 131.5 263 Z " /><path fill="rgb(145,175,174)" stroke="rgb(145,175,174)" stroke-width="1" opacity="0.996078431372549" d="M 75.5 274 L 78 274.5 L 75.5 275 L 75.5 274 Z " /><path fill="rgb(145,175,174)" stroke="rgb(145,175,174)" stroke-width="1" opacity="0.996078431372549" d="M 178.5 274 L 181 274.5 L 178.5 275 L 178.5 274 Z " /><path fill="rgb(145,175,174)" stroke="rgb(145,175,174)" stroke-width="1" opacity="0.996078431372549" d="M 195.5 274 L 198 274.5 L 195.5 275 L 195.5 274 Z " /><path fill="rgb(145,175,174)" stroke="rgb(145,175,174)" stroke-width="1" opacity="0.996078431372549" d="M 349.5 288 L 351.5 291 L 349.5 288 Z " /><path fill="rgb(145,175,174)" stroke="rgb(145,175,174)" stroke-width="1" opacity="0.996078431372549" d="M 354.5 291 L 357 291.5 L 354.5 292 L 354.5 291 Z " /><path fill="rgb(145,175,174)" stroke="rgb(145,175,174)" stroke-width="1" opacity="0.996078431372549" d="M 358.5 307 L 356.5 310 L 358.5 307 Z " /><path fill="rgb(145,175,174)" stroke="rgb(145,175,174)" stroke-width="1" opacity="0.996078431372549" d="M 30.5 327 L 37 327.5 L 30.5 328 L 30.5 327 Z " /><path fill="rgb(145,175,174)" stroke="rgb(145,175,174)" stroke-width="1" opacity="0.996078431372549" d="M 134.5 327 L 139 327.5 L 134.5 328 L 134.5 327 Z " /><path fill="rgb(145,175,174)" stroke="rgb(145,175,174)" stroke-width="1" opacity="0.996078431372549" d="M 43.5 328 L 46 328.5 L 43.5 329 L 43.5 328 Z " /><path fill="rgb(145,175,174)" stroke="rgb(145,175,174)" stroke-width="1" opacity="0.996078431372549" d="M 175.5 353 L 178 353.5 L 175.5 354 L 175.5 353 Z " /><path fill="rgb(145,175,174)" stroke="rgb(145,175,174)" stroke-width="1" opacity="0.996078431372549" d="M 198.5 353 L 201 353.5 L 198.5 354 L 198.5 353 Z " /><path fill="rgb(145,175,174)" stroke="rgb(145,175,174)" stroke-width="1" opacity="0.996078431372549" d="M 466.5 353 L 469 353.5 L 466.5 354 L 466.5 353 Z " /><path fill="rgb(145,175,174)" stroke="rgb(145,175,174)" stroke-width="1" opacity="0.996078431372549" d="M 81.5 354 L 88 354.5 L 81.5 355 L 81.5 354 Z " /><path fill="rgb(145,175,174)" stroke="rgb(145,175,174)" stroke-width="1" opacity="0.996078431372549" d="M 183.5 354 L 192 354.5 L 183.5 355 L 183.5 354 Z " /><path fill="rgb(145,175,174)" stroke="rgb(145,175,174)" stroke-width="1" opacity="0.996078431372549" d="M 380.5 354 L 381 356.5 L 380 356.5 L 380.5 354 Z " /><path fill="rgb(145,175,174)" stroke="rgb(145,175,174)" stroke-width="1" opacity="0.996078431372549" d="M 475.5 354 L 483 354.5 L 475.5 355 L 475.5 354 Z " /><path fill="rgb(145,175,174)" stroke="rgb(145,175,174)" stroke-width="1" opacity="0.996078431372549" d="M 25.5 407 L 31 407.5 L 25.5 408 L 25.5 407 Z " /><path fill="rgb(145,175,174)" stroke="rgb(145,175,174)" stroke-width="1" opacity="0.996078431372549" d="M 37.5 407 L 42 407.5 L 37.5 408 L 37.5 407 Z " /><path fill="rgb(145,175,174)" stroke="rgb(145,175,174)" stroke-width="1" opacity="0.996078431372549" d="M 128.5 407 L 134 407.5 L 128.5 408 L 128.5 407 Z " /><path fill="rgb(145,175,174)" stroke="rgb(145,175,174)" stroke-width="1" opacity="0.996078431372549" d="M 138.5 407 L 144 407.5 L 138.5 408 L 138.5 407 Z " /><path fill="rgb(145,175,174)" stroke="rgb(145,175,174)" stroke-width="1" opacity="0.996078431372549" d="M 419.5 407 L 424 407.5 L 419.5 408 L 419.5 407 Z " /><path fill="rgb(145,175,174)" stroke="rgb(145,175,174)" stroke-width="1" opacity="0.996078431372549" d="M 430.5 407 L 435 407.5 L 430.5 408 L 430.5 407 Z " /><path fill="rgb(145,175,174)" stroke="rgb(145,175,174)" stroke-width="1" opacity="0.996078431372549" d="M 122.5 408 L 125 408.5 L 122.5 409 L 122.5 408 Z " /><path fill="rgb(145,175,174)" stroke="rgb(145,175,174)" stroke-width="1" opacity="0.996078431372549" d="M 78.5 418 L 82 418.5 L 78.5 419 L 78.5 418 Z " /><path fill="rgb(145,175,174)" stroke="rgb(145,175,174)" stroke-width="1" opacity="0.996078431372549" d="M 88.5 418 L 92 418.5 L 88.5 419 L 88.5 418 Z " /><path fill="rgb(145,175,174)" stroke="rgb(145,175,174)" stroke-width="1" opacity="0.996078431372549" d="M 186.5 418 L 195 418.5 L 186.5 419 L 186.5 418 Z " /><path fill="rgb(145,175,174)" stroke="rgb(145,175,174)" stroke-width="1" opacity="0.996078431372549" d="M 471.5 418 L 475 418.5 L 471.5 419 L 471.5 418 Z " /><path fill="rgb(145,175,174)" stroke="rgb(145,175,174)" stroke-width="1" opacity="0.996078431372549" d="M 482.5 418 L 486 418.5 L 482.5 419 L 482.5 418 Z " /><path fill="rgb(145,175,174)" stroke="rgb(145,175,174)" stroke-width="1" opacity="0.996078431372549" d="M 29.5 422 L 38 422.5 L 29.5 423 L 29.5 422 Z " /><path fill="rgb(145,175,174)" stroke="rgb(145,175,174)" stroke-width="1" opacity="0.996078431372549" d="M 132.5 422 L 141 422.5 L 132.5 423 L 132.5 422 Z " /><path fill="rgb(145,175,174)" stroke="rgb(145,175,174)" stroke-width="1" opacity="0.996078431372549" d="M 423.5 422 L 432 422.5 L 423.5 423 L 423.5 422 Z " /><path fill="rgb(145,175,174)" stroke="rgb(145,175,174)" stroke-width="1" opacity="0.996078431372549" d="M 145.5 423 L 148 423.5 L 145.5 424 L 145.5 423 Z " /><path fill="rgb(145,175,174)" stroke="rgb(145,175,174)" stroke-width="1" opacity="0.996078431372549" d="M 92.5 433 L 95 433.5 L 92.5 434 L 92.5 433 Z " /><path fill="rgb(145,175,174)" stroke="rgb(145,175,174)" stroke-width="1" opacity="0.996078431372549" d="M 178.5 433 L 181 433.5 L 178.5 434 L 178.5 433 Z " /><path fill="rgb(145,175,174)" stroke="rgb(145,175,174)" stroke-width="1" opacity="0.996078431372549" d="M 195.5 433 L 198 433.5 L 195.5 434 L 195.5 433 Z " /><path fill="rgb(145,175,174)" stroke="rgb(145,175,174)" stroke-width="1" opacity="0.996078431372549" d="M 486.5 433 L 489 433.5 L 486.5 434 L 486.5 433 Z " /><path fill="rgb(145,175,174)" stroke="rgb(145,175,174)" stroke-width="1" opacity="0.996078431372549" d="M 15.5 492 L 206 492.5 L 15.5 493 L 15.5 492 Z " /><path fill="rgb(145,175,174)" stroke="rgb(145,175,174)" stroke-width="1" opacity="0.996078431372549" d="M 413.5 492 L 497 492.5 L 413.5 493 L 413.5 492 Z " /></svg>