<svg width="512" height="512" version="1.1" xmlns="http://www.w3.org/2000/svg" desc="Created with imagetracer.js version 1.2.6" ><path fill="rgb(0,0,0)" stroke="rgb(0,0,0)" stroke-width="1" opacity="0" d="M 0 0 L 511.5 0 L 512 0.5 L 512 9 L 245.5 9 L 245 9.5 L 245 85 L 276.5 85 L 277 85.5 L 277 245 L 480 245 L 480 85.5 L 480.5 85 L 512 85 L 512 276 L 291.5 276 L 288 282.5 L 227 447.5 L 224.5 450 L 150.5 477 L 74 420 L 57 352 L 86 352 L 86 330 L 49.5 330 L 48 328.5 L 27.5 298 L 0.5 298 L 0 297.5 L 0 0 Z M 153 127 Q 139 130 131 138 Q 120 147 117 163 L 117 372 L 117 372 L 96 372 L 96 394 L 139 394 L 139 168 L 144 157 Q 148 151 157 149 L 246 149 L 246 128 L 246 127 L 153 127 Z M 170 191 L 170 394 L 171 394 L 214 394 L 214 372 L 192 372 L 192 213 L 246 213 L 246 192 L 246 191 L 170 191 Z " /><path fill="rgb(0,0,0)" stroke="rgb(0,0,0)" stroke-width="1" opacity="0" d="M 267 32 L 489.5 32 L 490 32.5 L 490 63 L 458.5 63 L 458 63.5 L 458 223 L 299 223 L 299 85 L 437.5 85 L 438 84.5 L 438 63 L 267.5 63 L 267 62.5 L 267 32 Z M 330 116 L 330 138 L 331 138 L 427 138 L 427 117 L 427 116 L 330 116 Z " /><path fill="rgb(0,0,0)" stroke="rgb(0,0,0)" stroke-width="1" opacity="0" d="M 306 298 L 512 298 L 512 512 L 0 512 L 0 320 L 15.5 320 L 16 321.5 L 33 346.5 L 53 429.5 L 55.5 434 L 143.5 500 Q 145.2 502.8 150.5 502 L 244 467 L 306 298 Z " /><path fill="rgb(75,75,75)" stroke="rgb(75,75,75)" stroke-width="1" opacity="0.5529411764705883" d="M 245 9 L 512 9.5 L 246 10 L 246 84 L 276.5 84 L 278 85.5 L 278 244 L 480 244.5 L 277 245 L 277 85.5 L 276.5 85 L 245 85 L 245 9 Z " /><path fill="rgb(75,75,75)" stroke="rgb(75,75,75)" stroke-width="1" opacity="0.5529411764705883" d="M 267.5 31 L 490.5 31 L 491 31.5 L 491 62.5 L 489.5 64 L 459 64 L 459 222.5 L 457.5 224 L 299.5 224 L 298 222.5 L 298 85.5 L 299.5 84 L 436.5 84 L 437 83.5 L 437 64 L 299 63.5 L 438 63 L 438 84.5 L 437.5 85 L 299 85 L 299 223 L 458 223 L 458 63.5 L 458.5 63 L 490 63 L 490 32 L 267.5 32 L 267 32.5 L 267 63 L 288 63.5 L 267.5 64 L 266 62.5 L 266 32.5 L 267.5 31 Z " /><path fill="rgb(75,75,75)" stroke="rgb(75,75,75)" stroke-width="1" opacity="0.5529411764705883" d="M 480.5 84 L 512 84.5 L 480.5 85 L 480.5 84 Z " /><path fill="rgb(75,75,75)" stroke="rgb(75,75,75)" stroke-width="1" opacity="0.5529411764705883" d="M 330 116 L 426.5 116 L 427 116.5 L 427 137.5 L 426 137.5 L 426 117.5 L 425.5 117 L 331 117 L 330.5 138 L 330 116 Z " /><path fill="rgb(75,75,75)" stroke="rgb(75,75,75)" stroke-width="1" opacity="0.5529411764705883" d="M 152.5 127 L 245.5 127 L 246 127.5 L 246 149 L 158 148.5 L 245 148 L 245 128.5 L 244.5 128 L 152.5 128 L 152.5 127 Z " /><path fill="rgb(75,75,75)" stroke="rgb(75,75,75)" stroke-width="1" opacity="0.5529411764705883" d="M 148.5 128 L 151 128.5 L 148.5 129 L 148.5 128 Z " /><path fill="rgb(75,75,75)" stroke="rgb(75,75,75)" stroke-width="1" opacity="0.5529411764705883" d="M 145.5 129 L 147 129.5 L 139.5 133 L 140.5 131 L 145.5 129 Z " /><path fill="rgb(75,75,75)" stroke="rgb(75,75,75)" stroke-width="1" opacity="0.5529411764705883" d="M 137.5 133 L 136.5 135 L 130 139 L 123.5 148 L 124 146.5 L 130.5 138 L 137.5 133 Z " /><path fill="rgb(75,75,75)" stroke="rgb(75,75,75)" stroke-width="1" opacity="0.5529411764705883" d="M 122.5 149 L 122 150.5 L 119.5 157 L 119 155.5 L 122.5 149 Z " /><path fill="rgb(75,75,75)" stroke="rgb(75,75,75)" stroke-width="1" opacity="0.5529411764705883" d="M 153.5 149 L 156 149.5 L 151.5 151 L 151.5 150 L 153.5 149 Z " /><path fill="rgb(75,75,75)" stroke="rgb(75,75,75)" stroke-width="1" opacity="0.5529411764705883" d="M 149.5 151 L 147.5 154 L 144 156.5 L 139.5 167 L 139 163.5 Q 141.6 156.1 147.5 152 L 149.5 151 Z " /><path fill="rgb(75,75,75)" stroke="rgb(75,75,75)" stroke-width="1" opacity="0.5529411764705883" d="M 118.5 158 L 119 160.5 L 118 160.5 L 118.5 158 Z " /><path fill="rgb(75,75,75)" stroke="rgb(75,75,75)" stroke-width="1" opacity="0.5529411764705883" d="M 117.5 162 L 118 371.5 L 116.5 373 L 96.5 373 L 96.5 372 L 116.5 372 L 117 371.5 L 117.5 162 Z " /><path fill="rgb(75,75,75)" stroke="rgb(75,75,75)" stroke-width="1" opacity="0.5529411764705883" d="M 138.5 168 L 139 393.5 L 138 393.5 L 138.5 168 Z " /><path fill="rgb(75,75,75)" stroke="rgb(75,75,75)" stroke-width="1" opacity="0.5529411764705883" d="M 170 191 L 245.5 191 L 246 191.5 L 246 213 L 192 212.5 L 245 212 L 245 192.5 L 244.5 192 L 171 192 L 170.5 394 L 170 191 Z " /><path fill="rgb(75,75,75)" stroke="rgb(75,75,75)" stroke-width="1" opacity="0.5529411764705883" d="M 291.5 276 L 512 276.5 L 291 277 L 284.5 295 L 284 293.5 L 291.5 276 Z " /><path fill="rgb(75,75,75)" stroke="rgb(75,75,75)" stroke-width="1" opacity="0.5529411764705883" d="M 283.5 296 L 284 297.5 L 281.5 303 L 281 301.5 L 283.5 296 Z " /><path fill="rgb(75,75,75)" stroke="rgb(75,75,75)" stroke-width="1" opacity="0.5529411764705883" d="M 27.5 298 L 49 329.5 L 47 328.5 L 27.5 298 Z " /><path fill="rgb(75,75,75)" stroke="rgb(75,75,75)" stroke-width="1" opacity="0.5529411764705883" d="M 305.5 299 L 306 300.5 L 303.5 306 L 303 304.5 L 305.5 299 Z " /><path fill="rgb(75,75,75)" stroke="rgb(75,75,75)" stroke-width="1" opacity="0.5529411764705883" d="M 280.5 304 L 281 305.5 L 278.5 311 L 278 309.5 L 280.5 304 Z " /><path fill="rgb(75,75,75)" stroke="rgb(75,75,75)" stroke-width="1" opacity="0.5529411764705883" d="M 302.5 307 L 303 308.5 L 300.5 314 L 300 312.5 L 302.5 307 Z " /><path fill="rgb(75,75,75)" stroke="rgb(75,75,75)" stroke-width="1" opacity="0.5529411764705883" d="M 277.5 312 L 278 313.5 L 275.5 319 L 275 317.5 L 277.5 312 Z " /><path fill="rgb(75,75,75)" stroke="rgb(75,75,75)" stroke-width="1" opacity="0.5529411764705883" d="M 299.5 315 L 300 316.5 L 297.5 322 L 297 320.5 L 299.5 315 Z " /><path fill="rgb(75,75,75)" stroke="rgb(75,75,75)" stroke-width="1" opacity="0.5529411764705883" d="M 0.5 319 L 15.5 319 L 17 320.5 L 33 345.5 L 32 345.5 L 16 320 L 0.5 320 L 0.5 319 Z " /><path fill="rgb(75,75,75)" stroke="rgb(75,75,75)" stroke-width="1" opacity="0.5529411764705883" d="M 274.5 320 L 275 321.5 L 272.5 327 L 272 325.5 L 274.5 320 Z " /><path fill="rgb(75,75,75)" stroke="rgb(75,75,75)" stroke-width="1" opacity="0.5529411764705883" d="M 296.5 323 L 297 324.5 L 294.5 330 L 294 328.5 L 296.5 323 Z " /><path fill="rgb(75,75,75)" stroke="rgb(75,75,75)" stroke-width="1" opacity="0.5529411764705883" d="M 271.5 328 L 272 329.5 L 269.5 335 L 269 333.5 L 271.5 328 Z " /><path fill="rgb(75,75,75)" stroke="rgb(75,75,75)" stroke-width="1" opacity="0.5529411764705883" d="M 85.5 330 L 86 352 L 57.5 352 L 56.5 353 L 56 351 L 85 351 L 85.5 330 Z " /><path fill="rgb(75,75,75)" stroke="rgb(75,75,75)" stroke-width="1" opacity="0.5529411764705883" d="M 293.5 331 L 294 332.5 L 291.5 338 L 291 336.5 L 293.5 331 Z " /><path fill="rgb(75,75,75)" stroke="rgb(75,75,75)" stroke-width="1" opacity="0.5529411764705883" d="M 268.5 336 L 269 337.5 L 266.5 343 L 266 341.5 L 268.5 336 Z " /><path fill="rgb(75,75,75)" stroke="rgb(75,75,75)" stroke-width="1" opacity="0.5529411764705883" d="M 290.5 339 L 291 340.5 L 288.5 346 L 288 344.5 L 290.5 339 Z " /><path fill="rgb(75,75,75)" stroke="rgb(75,75,75)" stroke-width="1" opacity="0.5529411764705883" d="M 265.5 344 L 266 345.5 L 263.5 351 L 263 349.5 L 265.5 344 Z " /><path fill="rgb(75,75,75)" stroke="rgb(75,75,75)" stroke-width="1" opacity="0.5529411764705883" d="M 33.5 347 L 34 349.5 L 33 349.5 L 33.5 347 Z " /><path fill="rgb(75,75,75)" stroke="rgb(75,75,75)" stroke-width="1" opacity="0.5529411764705883" d="M 287.5 347 L 288 348.5 L 285.5 354 L 285 352.5 L 287.5 347 Z " /><path fill="rgb(75,75,75)" stroke="rgb(75,75,75)" stroke-width="1" opacity="0.5529411764705883" d="M 34.5 351 L 35 353.5 L 34 353.5 L 34.5 351 Z " /><path fill="rgb(75,75,75)" stroke="rgb(75,75,75)" stroke-width="1" opacity="0.5529411764705883" d="M 262.5 352 L 263 353.5 L 260.5 359 L 260 357.5 L 262.5 352 Z " /><path fill="rgb(75,75,75)" stroke="rgb(75,75,75)" stroke-width="1" opacity="0.5529411764705883" d="M 57.5 354 L 58 356.5 L 57 356.5 L 57.5 354 Z " /><path fill="rgb(75,75,75)" stroke="rgb(75,75,75)" stroke-width="1" opacity="0.5529411764705883" d="M 35.5 355 L 36 357.5 L 35 357.5 L 35.5 355 Z " /><path fill="rgb(75,75,75)" stroke="rgb(75,75,75)" stroke-width="1" opacity="0.5529411764705883" d="M 284.5 355 L 285 356.5 L 282.5 362 L 282 360.5 L 284.5 355 Z " /><path fill="rgb(75,75,75)" stroke="rgb(75,75,75)" stroke-width="1" opacity="0.5529411764705883" d="M 58.5 358 L 59 360.5 L 58 360.5 L 58.5 358 Z " /><path fill="rgb(75,75,75)" stroke="rgb(75,75,75)" stroke-width="1" opacity="0.5529411764705883" d="M 36.5 359 L 37 361.5 L 36 361.5 L 36.5 359 Z " /><path fill="rgb(75,75,75)" stroke="rgb(75,75,75)" stroke-width="1" opacity="0.5529411764705883" d="M 259.5 360 L 260 361.5 L 257.5 367 L 257 365.5 L 259.5 360 Z " /><path fill="rgb(75,75,75)" stroke="rgb(75,75,75)" stroke-width="1" opacity="0.5529411764705883" d="M 59.5 362 L 60 364.5 L 59 364.5 L 59.5 362 Z " /><path fill="rgb(75,75,75)" stroke="rgb(75,75,75)" stroke-width="1" opacity="0.5529411764705883" d="M 37.5 363 L 38 365.5 L 37 365.5 L 37.5 363 Z " /><path fill="rgb(75,75,75)" stroke="rgb(75,75,75)" stroke-width="1" opacity="0.5529411764705883" d="M 281.5 363 L 282 364.5 L 279.5 370 L 279 368.5 L 281.5 363 Z " /><path fill="rgb(75,75,75)" stroke="rgb(75,75,75)" stroke-width="1" opacity="0.5529411764705883" d="M 60.5 366 L 61 368.5 L 60 368.5 L 60.5 366 Z " /><path fill="rgb(75,75,75)" stroke="rgb(75,75,75)" stroke-width="1" opacity="0.5529411764705883" d="M 38.5 367 L 39 369.5 L 38 369.5 L 38.5 367 Z " /><path fill="rgb(75,75,75)" stroke="rgb(75,75,75)" stroke-width="1" opacity="0.5529411764705883" d="M 256.5 368 L 257 369.5 L 254.5 375 L 254 373.5 L 256.5 368 Z " /><path fill="rgb(75,75,75)" stroke="rgb(75,75,75)" stroke-width="1" opacity="0.5529411764705883" d="M 61.5 370 L 62 372.5 L 61 372.5 L 61.5 370 Z " /><path fill="rgb(75,75,75)" stroke="rgb(75,75,75)" stroke-width="1" opacity="0.5529411764705883" d="M 39.5 371 L 40 373.5 L 39 373.5 L 39.5 371 Z " /><path fill="rgb(75,75,75)" stroke="rgb(75,75,75)" stroke-width="1" opacity="0.5529411764705883" d="M 278.5 371 L 279 372.5 L 276.5 378 L 276 376.5 L 278.5 371 Z " /><path fill="rgb(75,75,75)" stroke="rgb(75,75,75)" stroke-width="1" opacity="0.5529411764705883" d="M 192.5 372 L 214 372 L 214 393.5 L 213 393.5 L 213 373 L 192.5 373 L 192.5 372 Z " /><path fill="rgb(75,75,75)" stroke="rgb(75,75,75)" stroke-width="1" opacity="0.5529411764705883" d="M 62.5 374 L 63 376.5 L 62 376.5 L 62.5 374 Z " /><path fill="rgb(75,75,75)" stroke="rgb(75,75,75)" stroke-width="1" opacity="0.5529411764705883" d="M 40.5 375 L 41 377.5 L 40 377.5 L 40.5 375 Z " /><path fill="rgb(75,75,75)" stroke="rgb(75,75,75)" stroke-width="1" opacity="0.5529411764705883" d="M 253.5 376 L 254 377.5 L 251.5 383 L 251 381.5 L 253.5 376 Z " /><path fill="rgb(75,75,75)" stroke="rgb(75,75,75)" stroke-width="1" opacity="0.5529411764705883" d="M 63.5 378 L 64 380.5 L 63 380.5 L 63.5 378 Z " /><path fill="rgb(75,75,75)" stroke="rgb(75,75,75)" stroke-width="1" opacity="0.5529411764705883" d="M 41.5 379 L 42 381.5 L 41 381.5 L 41.5 379 Z " /><path fill="rgb(75,75,75)" stroke="rgb(75,75,75)" stroke-width="1" opacity="0.5529411764705883" d="M 275.5 379 L 276 380.5 L 273.5 386 L 273 384.5 L 275.5 379 Z " /><path fill="rgb(75,75,75)" stroke="rgb(75,75,75)" stroke-width="1" opacity="0.5529411764705883" d="M 64.5 382 L 65 384.5 L 64 384.5 L 64.5 382 Z " /><path fill="rgb(75,75,75)" stroke="rgb(75,75,75)" stroke-width="1" opacity="0.5529411764705883" d="M 42.5 383 L 43 385.5 L 42 385.5 L 42.5 383 Z " /><path fill="rgb(75,75,75)" stroke="rgb(75,75,75)" stroke-width="1" opacity="0.5529411764705883" d="M 65.5 386 L 66 388.5 L 65 388.5 L 65.5 386 Z " /><path fill="rgb(75,75,75)" stroke="rgb(75,75,75)" stroke-width="1" opacity="0.5529411764705883" d="M 43.5 387 L 44 389.5 L 43 389.5 L 43.5 387 Z " /><path fill="rgb(75,75,75)" stroke="rgb(75,75,75)" stroke-width="1" opacity="0.5529411764705883" d="M 249.5 387 L 250 388.5 L 248.5 391 L 248 389.5 L 249.5 387 Z " /><path fill="rgb(75,75,75)" stroke="rgb(75,75,75)" stroke-width="1" opacity="0.5529411764705883" d="M 272.5 387 L 273 388.5 L 251.5 445 L 251 443.5 L 272.5 387 Z " /><path fill="rgb(75,75,75)" stroke="rgb(75,75,75)" stroke-width="1" opacity="0.5529411764705883" d="M 66.5 390 L 67 392.5 L 66 392.5 L 66.5 390 Z " /><path fill="rgb(75,75,75)" stroke="rgb(75,75,75)" stroke-width="1" opacity="0.5529411764705883" d="M 44.5 391 L 45 393.5 L 44 393.5 L 44.5 391 Z " /><path fill="rgb(75,75,75)" stroke="rgb(75,75,75)" stroke-width="1" opacity="0.5529411764705883" d="M 247.5 392 L 248 393.5 L 245.5 399 L 245 397.5 L 247.5 392 Z " /><path fill="rgb(75,75,75)" stroke="rgb(75,75,75)" stroke-width="1" opacity="0.5529411764705883" d="M 67.5 394 L 68 396.5 L 67 396.5 L 67.5 394 Z " /><path fill="rgb(75,75,75)" stroke="rgb(75,75,75)" stroke-width="1" opacity="0.5529411764705883" d="M 45.5 395 L 46 397.5 L 45 397.5 L 45.5 395 Z " /><path fill="rgb(75,75,75)" stroke="rgb(75,75,75)" stroke-width="1" opacity="0.5529411764705883" d="M 68.5 398 L 69 400.5 L 68 400.5 L 68.5 398 Z " /><path fill="rgb(75,75,75)" stroke="rgb(75,75,75)" stroke-width="1" opacity="0.5529411764705883" d="M 46.5 399 L 47 401.5 L 46 401.5 L 46.5 399 Z " /><path fill="rgb(75,75,75)" stroke="rgb(75,75,75)" stroke-width="1" opacity="0.5529411764705883" d="M 244.5 400 L 245 401.5 L 242.5 407 L 242 405.5 L 244.5 400 Z " /><path fill="rgb(75,75,75)" stroke="rgb(75,75,75)" stroke-width="1" opacity="0.5529411764705883" d="M 69.5 402 L 70 404.5 L 69 404.5 L 69.5 402 Z " /><path fill="rgb(75,75,75)" stroke="rgb(75,75,75)" stroke-width="1" opacity="0.5529411764705883" d="M 47.5 403 L 48 405.5 L 47 405.5 L 47.5 403 Z " /><path fill="rgb(75,75,75)" stroke="rgb(75,75,75)" stroke-width="1" opacity="0.5529411764705883" d="M 70.5 406 L 71 408.5 L 70 408.5 L 70.5 406 Z " /><path fill="rgb(75,75,75)" stroke="rgb(75,75,75)" stroke-width="1" opacity="0.5529411764705883" d="M 48.5 407 L 49 409.5 L 48 409.5 L 48.5 407 Z " /><path fill="rgb(75,75,75)" stroke="rgb(75,75,75)" stroke-width="1" opacity="0.5529411764705883" d="M 241.5 408 L 242 409.5 L 239.5 415 L 239 413.5 L 241.5 408 Z " /><path fill="rgb(75,75,75)" stroke="rgb(75,75,75)" stroke-width="1" opacity="0.5529411764705883" d="M 71.5 410 L 72 412.5 L 71 412.5 L 71.5 410 Z " /><path fill="rgb(75,75,75)" stroke="rgb(75,75,75)" stroke-width="1" opacity="0.5529411764705883" d="M 49.5 411 L 50 413.5 L 49 413.5 L 49.5 411 Z " /><path fill="rgb(75,75,75)" stroke="rgb(75,75,75)" stroke-width="1" opacity="0.5529411764705883" d="M 72.5 414 L 73 416.5 L 72 416.5 L 72.5 414 Z " /><path fill="rgb(75,75,75)" stroke="rgb(75,75,75)" stroke-width="1" opacity="0.5529411764705883" d="M 50.5 415 L 51 417.5 L 50 417.5 L 50.5 415 Z " /><path fill="rgb(75,75,75)" stroke="rgb(75,75,75)" stroke-width="1" opacity="0.5529411764705883" d="M 238.5 416 L 239 417.5 L 236.5 423 L 236 421.5 L 238.5 416 Z " /><path fill="rgb(75,75,75)" stroke="rgb(75,75,75)" stroke-width="1" opacity="0.5529411764705883" d="M 73.5 418 L 74 420 L 150.5 477 L 152.5 477 L 219.5 452 L 226.5 448 L 227 450 L 150.5 478 L 73 419.5 L 73.5 418 Z " /><path fill="rgb(75,75,75)" stroke="rgb(75,75,75)" stroke-width="1" opacity="0.5529411764705883" d="M 51.5 419 L 52 421.5 L 51 421.5 L 51.5 419 Z " /><path fill="rgb(75,75,75)" stroke="rgb(75,75,75)" stroke-width="1" opacity="0.5529411764705883" d="M 52.5 423 L 53 425.5 L 52 425.5 L 52.5 423 Z " /><path fill="rgb(75,75,75)" stroke="rgb(75,75,75)" stroke-width="1" opacity="0.5529411764705883" d="M 235.5 424 L 236 425.5 L 233.5 431 L 233 429.5 L 235.5 424 Z " /><path fill="rgb(75,75,75)" stroke="rgb(75,75,75)" stroke-width="1" opacity="0.5529411764705883" d="M 53.5 427 L 54 429.5 L 53 429.5 L 53.5 427 Z " /><path fill="rgb(75,75,75)" stroke="rgb(75,75,75)" stroke-width="1" opacity="0.5529411764705883" d="M 54.5 431 L 55 433 L 147 501.5 L 144.5 500 L 54 432.5 L 54.5 431 Z " /><path fill="rgb(75,75,75)" stroke="rgb(75,75,75)" stroke-width="1" opacity="0.5529411764705883" d="M 232.5 432 L 233 433.5 L 230.5 439 L 230 437.5 L 232.5 432 Z " /><path fill="rgb(75,75,75)" stroke="rgb(75,75,75)" stroke-width="1" opacity="0.5529411764705883" d="M 229.5 440 L 230 441.5 L 227.5 447 L 227 445.5 L 229.5 440 Z " /><path fill="rgb(75,75,75)" stroke="rgb(75,75,75)" stroke-width="1" opacity="0.5529411764705883" d="M 250.5 446 L 251 447.5 L 248.5 453 L 248 451.5 L 250.5 446 Z " /><path fill="rgb(75,75,75)" stroke="rgb(75,75,75)" stroke-width="1" opacity="0.5529411764705883" d="M 247.5 454 L 248 455.5 L 245.5 461 L 245 459.5 L 247.5 454 Z " /><path fill="rgb(75,75,75)" stroke="rgb(75,75,75)" stroke-width="1" opacity="0.5529411764705883" d="M 244.5 462 L 245 463.5 L 244 467 L 242 466.5 L 244.5 462 Z " /><path fill="rgb(75,75,75)" stroke="rgb(75,75,75)" stroke-width="1" opacity="0.5529411764705883" d="M 239.5 467 L 241 467.5 L 234.5 470 L 234.5 469 L 239.5 467 Z " /><path fill="rgb(75,75,75)" stroke="rgb(75,75,75)" stroke-width="1" opacity="0.5529411764705883" d="M 231.5 470 L 233 470.5 L 226.5 473 L 226.5 472 L 231.5 470 Z " /><path fill="rgb(75,75,75)" stroke="rgb(75,75,75)" stroke-width="1" opacity="0.5529411764705883" d="M 223.5 473 L 225 473.5 L 218.5 476 L 218.5 475 L 223.5 473 Z " /><path fill="rgb(75,75,75)" stroke="rgb(75,75,75)" stroke-width="1" opacity="0.5529411764705883" d="M 215.5 476 L 217 476.5 L 210.5 479 L 210.5 478 L 215.5 476 Z " /><path fill="rgb(75,75,75)" stroke="rgb(75,75,75)" stroke-width="1" opacity="0.5529411764705883" d="M 207.5 479 L 209 479.5 L 202.5 482 L 202.5 481 L 207.5 479 Z " /><path fill="rgb(75,75,75)" stroke="rgb(75,75,75)" stroke-width="1" opacity="0.5529411764705883" d="M 199.5 482 L 201 482.5 L 194.5 485 L 194.5 484 L 199.5 482 Z " /><path fill="rgb(75,75,75)" stroke="rgb(75,75,75)" stroke-width="1" opacity="0.5529411764705883" d="M 191.5 485 L 193 485.5 L 186.5 488 L 186.5 487 L 191.5 485 Z " /><path fill="rgb(75,75,75)" stroke="rgb(75,75,75)" stroke-width="1" opacity="0.5529411764705883" d="M 183.5 488 L 185 488.5 L 178.5 491 L 178.5 490 L 183.5 488 Z " /><path fill="rgb(75,75,75)" stroke="rgb(75,75,75)" stroke-width="1" opacity="0.5529411764705883" d="M 175.5 491 L 177 491.5 L 170.5 494 L 170.5 493 L 175.5 491 Z " /><path fill="rgb(75,75,75)" stroke="rgb(75,75,75)" stroke-width="1" opacity="0.5529411764705883" d="M 167.5 494 L 169 494.5 L 162.5 497 L 162.5 496 L 167.5 494 Z " /><path fill="rgb(75,75,75)" stroke="rgb(75,75,75)" stroke-width="1" opacity="0.5529411764705883" d="M 159.5 497 L 161 497.5 L 154.5 500 L 154.5 499 L 159.5 497 Z " /><path fill="rgb(75,75,75)" stroke="rgb(75,75,75)" stroke-width="1" opacity="0.5529411764705883" d="M 151.5 500 L 153 500.5 L 148.5 502 L 148.5 501 L 151.5 500 Z " /><path fill="rgb(76,76,76)" stroke="rgb(76,76,76)" stroke-width="1" opacity="0.996078431372549" d="M 246 10 L 511.5 10 L 512 10.5 L 512 84 L 480.5 84 L 480 84.5 L 480 244 L 278 244 L 278 85.5 L 276.5 84 L 246 84 L 246 10 Z M 268 31 L 266 33 L 266 63 L 268 64 L 288 64 L 289 63 L 299 63 L 300 64 L 437 64 L 437 84 L 437 84 L 300 84 L 298 86 L 298 223 L 300 224 L 458 224 L 459 223 L 459 64 L 490 64 L 491 63 L 491 32 L 491 31 L 268 31 Z " /><path fill="rgb(76,76,76)" stroke="rgb(76,76,76)" stroke-width="1" opacity="0.996078431372549" d="M 331 117 L 425.5 117 L 426 117.5 L 426 138 L 331.5 138 L 331 137.5 L 331 117 Z " /><path fill="rgb(76,76,76)" stroke="rgb(76,76,76)" stroke-width="1" opacity="0.996078431372549" d="M 151.5 128 L 244.5 128 L 245 128.5 L 245 148 L 158.5 148 Q 147.2 149.7 142 157.5 L 138 168.5 L 138 394 L 96 394 L 96 373 L 116.5 373 L 118 371.5 L 118 161.5 L 123 148.5 L 130 139 L 138.5 133 L 151.5 128 Z " /><path fill="rgb(76,76,76)" stroke="rgb(76,76,76)" stroke-width="1" opacity="0.996078431372549" d="M 171 192 L 244.5 192 L 245 192.5 L 245 212 L 192.5 212 L 192 212.5 L 192 373 L 213 373 L 213 394 L 171.5 394 L 171 393.5 L 171 192 Z " /><path fill="rgb(76,76,76)" stroke="rgb(76,76,76)" stroke-width="1" opacity="0.996078431372549" d="M 291 277 L 511.5 277 L 512 277.5 L 512 298 L 306.5 298 L 305 299.5 L 245 461.5 L 241.5 467 L 147.5 502 L 55 433 L 33 344.5 L 15.5 319 L 0 319 L 0 298 L 26.5 298 L 29 300.5 L 48.5 330 L 85 330 L 85 351 L 56.5 351 L 56 352.5 L 72 416.5 L 75.5 422 L 147.5 476 L 152.5 478 L 227 450 L 291 277 Z " /></svg>